# xmcd
#
# Track frame offsets:
#	150
#	13459
#	24984
#	31984
#	44802
#	51607
#	65622
#	72673
#	82663
#	105675
#	127217
#	140883
#	147907
#	157809
#	178586
#	192007
#	213775
#	228315
#	242190
#	264077
#	280100
#	292180
#	305854
#	318202
#	335711
#
# Disc length: 4796 seconds
#
# Revision: 1
# Processed by: cddbd v1.5.2PL0 Copyright (c) Steve Scherf et al.
# Submitted via: EasyCDDAExtractor 9.0.2.1
#
DISCID=8612ba19
DTITLE=Владимир Высоцкий - Платиновая коллекция. CD 2
DYEAR=2003
DGENRE=Blues
TTITLE0=Москва - Одесса
TTITLE1=Мой друг уехал в Магадан
TTITLE2=Зарисовка о париже
TTITLE3=Песня о друге
TTITLE4=Случай в Африке
TTITLE5=Заповедник
TTITLE6=Бал - маскарад
TTITLE7=Бег иноходца
TTITLE8=Две судьбы
TTITLE9=Инструкция
TTITLE10=Погоня
TTITLE11=Марафон
TTITLE12=Песенка гладиатора
TTITLE13=Моя цыганская
TTITLE14=Кругом пятьсот
TTITLE15=Не долюбил
TTITLE16=Не ко двору
TTITLE17=Не состоялось
TTITLE18=Письмо в редакцию
TTITLE19=Чужая колея
TTITLE20=Тот, кто раньше с нею был
TTITLE21=Тот, который не стрелял
TTITLE22=Прощание с горами
TTITLE23=Спасите наши души
TTITLE24=Кони привиредливые
EXTD=
EXTT0=
EXTT1=
EXTT2=
EXTT3=
EXTT4=
EXTT5=
EXTT6=
EXTT7=
EXTT8=
EXTT9=
EXTT10=
EXTT11=
EXTT12=
EXTT13=
EXTT14=
EXTT15=
EXTT16=
EXTT17=
EXTT18=
EXTT19=
EXTT20=
EXTT21=
EXTT22=
EXTT23=
EXTT24=
PLAYORDER=
